<?xml version="1.0" encoding="UTF-8"?>
<svg id="a" data-name="Layer 2" xmlns="http://www.w3.org/2000/svg" width="655.694" height="138.804" viewBox="0 0 655.694 138.804">
  <g id="b" data-name="Layer 1">
    <g>
      <g>
        <g>
          <path d="M169.137,50.645c0-14.487,10.759-25.668,25.668-25.668,9.001,0,17.018,4.571,21.308,11.674l-10.9,6.258c-1.899-3.516-5.837-5.625-10.408-5.625-7.947,0-13.151,5.484-13.151,13.361s5.204,13.361,13.151,13.361c4.571,0,8.509-2.11,10.408-5.697l10.9,6.329c-4.289,7.103-12.236,11.674-21.308,11.674-14.908,0-25.668-11.181-25.668-25.667Z" fill="#fff"/>
          <path d="M242.741,59.364h-6.732v15.893h-12.588V26.031h21.921c9.986,0,17.722,7.102,17.722,17.019,0,6.048-3.305,11.18-8.368,13.993l10.126,18.214h-13.502l-8.579-15.893ZM236.009,48.675h9.193c3.094.071,5.274-2.18,5.274-5.484,0-3.236-2.18-5.556-5.274-5.556h-9.193v11.041Z" fill="#fff"/>
          <path d="M433.563,59.364h-6.732v15.893h-12.588V26.031h21.921c9.986,0,17.722,7.102,17.722,17.019,0,6.048-3.305,11.18-8.368,13.993l10.126,18.214h-13.502l-8.579-15.893ZM426.831,48.675h9.193c3.094.071,5.274-2.18,5.274-5.484,0-3.236-2.18-5.556-5.274-5.556h-9.193v11.041Z" fill="#fff"/>
          <path d="M269.46,50.645c0-14.487,11.462-25.668,25.808-25.668s25.808,11.181,25.808,25.668-11.462,25.667-25.808,25.667-25.808-11.181-25.808-25.667ZM308.56,50.645c0-7.877-5.767-13.361-13.291-13.361s-13.291,5.484-13.291,13.361,5.767,13.361,13.291,13.361,13.291-5.486,13.291-13.361Z" fill="#fff"/>
          <path d="M325.221,64.076l10.76-6.259c1.757,4.22,4.782,6.54,9.704,6.54,4.43,0,5.767-1.617,5.767-3.304,0-2.813-3.235-3.657-9.494-5.416-7.735-2.25-14.627-6.188-14.627-15.4s7.525-15.26,17.089-15.26c8.158,0,14.839,3.868,18.284,11.251l-10.548,6.189c-1.547-3.657-4.078-5.486-7.665-5.486-3.094,0-4.571,1.476-4.571,3.235,0,2.18,1.758,3.375,8.439,5.345,7.595,2.25,15.682,5.063,15.682,15.4,0,9.775-7.595,15.401-18.706,15.401-10.689,0-17.51-4.993-20.112-12.236Z" fill="#fff"/>
          <path d="M368.044,64.076l10.76-6.259c1.757,4.22,4.782,6.54,9.704,6.54,4.43,0,5.767-1.617,5.767-3.304,0-2.813-3.235-3.657-9.494-5.416-7.735-2.25-14.627-6.188-14.627-15.4s7.525-15.26,17.089-15.26c8.158,0,14.839,3.868,18.284,11.251l-10.548,6.189c-1.547-3.657-4.078-5.486-7.665-5.486-3.094,0-4.571,1.476-4.571,3.235,0,2.18,1.758,3.375,8.439,5.345,7.595,2.25,15.682,5.063,15.682,15.4,0,9.775-7.595,15.401-18.706,15.401-10.689,0-17.51-4.993-20.112-12.236Z" fill="#fff"/>
          <path d="M460.281,50.645c0-14.487,11.462-25.668,25.809-25.668s25.809,11.181,25.809,25.668-11.462,25.667-25.809,25.667-25.809-11.181-25.809-25.667ZM499.38,50.645c0-7.877-5.766-13.361-13.291-13.361s-13.291,5.484-13.291,13.361,5.766,13.361,13.291,13.361,13.291-5.486,13.291-13.361Z" fill="#fff"/>
          <path d="M546.702,68.155h-16.385l-2.11,7.102h-13.643l16.245-49.226h15.33l16.244,49.226h-13.572l-2.11-7.102ZM543.467,57.326l-4.993-16.738-4.922,16.738h9.915Z" fill="#fff"/>
          <path d="M612.731,50.645c0,13.924-10.338,24.613-23.91,24.613h-20.042V26.031h20.042c13.572,0,23.91,10.689,23.91,24.614ZM600.424,50.645c0-7.525-4.853-12.447-11.603-12.447h-7.102v24.894h7.102c6.75,0,11.603-4.922,11.603-12.446Z" fill="#fff"/>
          <path d="M616.876,64.076l10.76-6.259c1.757,4.22,4.782,6.54,9.704,6.54,4.43,0,5.767-1.617,5.767-3.304,0-2.813-3.235-3.657-9.494-5.416-7.735-2.25-14.627-6.188-14.627-15.4s7.525-15.26,17.089-15.26c8.158,0,14.839,3.868,18.284,11.251l-10.548,6.189c-1.547-3.657-4.078-5.486-7.665-5.486-3.094,0-4.571,1.476-4.571,3.235,0,2.18,1.758,3.375,8.439,5.345,7.595,2.25,15.682,5.063,15.682,15.4,0,9.775-7.595,15.401-18.706,15.401-10.689,0-17.51-4.993-20.112-12.236Z" fill="#fff"/>
        </g>
        <g>
          <path d="M174.637,116.276c0-8.647,6.412-15.354,15.355-15.354,5.399,0,10.166,2.742,12.697,6.96l-5.02,2.911c-1.434-2.616-4.302-4.218-7.677-4.218-5.779,0-9.576,4.007-9.576,9.702,0,5.653,3.797,9.66,9.576,9.66,3.375,0,6.285-1.603,7.677-4.176l5.02,2.91c-2.488,4.218-7.255,6.961-12.697,6.961-8.943,0-15.355-6.749-15.355-15.355Z" fill="#fff"/>
          <path d="M217.292,116.276c0-8.647,6.791-15.354,15.313-15.354s15.354,6.707,15.354,15.354-6.833,15.355-15.354,15.355-15.313-6.749-15.313-15.355ZM242.137,116.276c0-5.695-4.176-9.702-9.533-9.702s-9.534,4.007-9.534,9.702c0,5.653,4.176,9.66,9.534,9.66s9.533-4.007,9.533-9.66Z" fill="#fff"/>
          <polygon points="293.608 131.041 287.829 131.041 287.829 111.89 279.519 125.599 278.843 125.599 270.534 111.932 270.534 131.041 264.713 131.041 264.713 101.513 270.703 101.513 279.181 115.476 287.618 101.513 293.608 101.513 293.608 131.041" fill="#fff"/>
          <polygon points="340.649 131.041 334.871 131.041 334.871 111.89 326.56 125.599 325.885 125.599 317.575 111.932 317.575 131.041 311.754 131.041 311.754 101.513 317.744 101.513 326.223 115.476 334.66 101.513 340.649 101.513 340.649 131.041" fill="#fff"/>
          <path d="M357.445,116.276c0-8.647,6.791-15.354,15.313-15.354s15.354,6.707,15.354,15.354-6.833,15.355-15.354,15.355-15.313-6.749-15.313-15.355ZM382.291,116.276c0-5.695-4.176-9.702-9.533-9.702s-9.534,4.007-9.534,9.702c0,5.653,4.176,9.66,9.534,9.66s9.533-4.007,9.533-9.66Z" fill="#fff"/>
          <polygon points="427.772 101.513 427.772 131.041 423.343 131.041 410.688 112.986 410.688 131.041 404.867 131.041 404.867 101.513 409.296 101.513 421.951 119.525 421.951 101.513 427.772 101.513" fill="#fff"/>
          <path d="M443.935,124.334l4.978-2.911c1.055,2.742,3.121,4.514,6.791,4.514,3.502,0,4.725-1.476,4.725-3.121,0-2.194-1.983-3.037-6.37-4.302-4.514-1.308-8.9-3.206-8.9-8.817,0-5.568,4.64-8.774,9.702-8.774,4.851,0,8.563,2.488,10.546,6.623l-4.894,2.826c-1.055-2.236-2.657-3.797-5.652-3.797-2.447,0-3.881,1.266-3.881,2.952,0,1.814,1.139,2.785,5.61,4.135,4.683,1.476,9.66,3.037,9.66,9.069,0,5.527-4.429,8.901-10.714,8.901-6.032,0-9.998-2.911-11.601-7.297Z" fill="#fff"/>
        </g>
      </g>
      <g>
        <g>
          <path d="M61.413,52.492c-3.686,4.169-7.69,8.049-12.004,11.57-2.303,1.879-4.685,3.664-7.149,5.34-2.85,1.939-5.801,3.739-8.847,5.387-3.031,1.641-6.159,3.123-9.365,4.455-7.017,2.917-14.43,5.06-22.131,6.348.669,2.798,1.499,5.532,2.496,8.187,10.016-1.78,19.581-4.881,28.477-9.173,2.836-1.369,5.593-2.874,8.289-4.472,1.995-1.182,3.945-2.431,5.855-3.734.798-.544,1.59-1.095,2.373-1.658,2.354-1.694,4.641-3.471,6.852-5.34.715-.604,1.406-1.235,2.105-1.857,2.942-2.617,5.733-5.395,8.381-8.308-.121-.14-.248-.277-.368-.418-1.694-2.005-3.36-4.133-4.966-6.327Z" fill="#fff"/>
          <path d="M51.548,36.455c-5.28,6.817-11.562,12.818-18.657,17.743-2.827,1.962-5.779,3.752-8.842,5.362-4.051,2.129-8.296,3.935-12.701,5.389-3.665,1.21-7.441,2.169-11.308,2.868-.012.529-.04,1.053-.04,1.585s.028,1.057.04,1.586c.041,1.819.132,3.625.31,5.407,3.746-.626,7.416-1.476,10.997-2.539,4.095-1.215,8.067-2.709,11.905-4.454,3.506-1.594,6.903-3.385,10.161-5.387,2.684-1.65,5.272-3.439,7.767-5.345,5.464-4.176,10.441-8.952,14.854-14.217-.255-.417-.525-.839-.771-1.253-1.381-2.331-2.604-4.553-3.716-6.745Z" fill="#fff"/>
        </g>
        <g>
          <path d="M84.607,105.913c-1.369-2.837-2.875-5.594-4.473-8.29-1.183-1.995-2.431-3.945-3.734-5.855-.544-.798-1.094-1.59-1.658-2.373-1.694-2.354-3.472-4.641-5.34-6.852-.605-.715-1.235-1.406-1.857-2.105-2.617-2.942-5.395-5.734-8.308-8.381-.139.12-.278.249-.418.367-2.006,1.696-4.133,3.361-6.327,4.967,4.169,3.686,8.049,7.69,11.569,12.004,1.88,2.303,3.665,4.686,5.341,7.149,1.939,2.85,3.738,5.801,5.386,8.846,1.641,3.032,3.124,6.16,4.456,9.367,2.916,7.017,5.059,14.429,6.347,22.129,2.799-.669,5.533-1.499,8.188-2.496-1.779-10.017-4.881-19.582-9.173-28.477Z" fill="#fff"/>
          <path d="M36.455,87.256c6.817,5.28,12.818,11.562,17.742,18.657,1.962,2.827,3.753,5.78,5.363,8.844,2.129,4.051,3.934,8.294,5.388,12.699,1.209,3.666,2.169,7.441,2.868,11.309.529.012,1.054.04,1.586.04s1.057-.028,1.586-.04c1.819-.041,3.626-.132,5.407-.31-.626-3.747-1.476-7.417-2.539-10.998-1.215-4.095-2.708-8.068-4.454-11.906-1.594-3.505-3.385-6.902-5.387-10.159-1.65-2.684-3.439-5.272-5.346-7.767-4.176-5.464-8.952-10.441-14.217-14.854-.418.255-.839.525-1.253.771-2.333,1.382-4.555,2.605-6.744,3.716Z" fill="#fff"/>
        </g>
        <g>
          <path d="M86.312,61.414c-4.169-3.686-8.049-7.69-11.569-12.004-1.88-2.303-3.665-4.686-5.34-7.149-1.939-2.85-3.739-5.801-5.387-8.847-1.64-3.032-3.123-6.16-4.456-9.366-2.916-7.017-5.059-14.429-6.347-22.129-2.799.669-5.533,1.499-8.189,2.496,1.78,10.017,4.881,19.582,9.173,28.477,1.369,2.837,2.875,5.594,4.472,8.29,1.182,1.995,2.431,3.945,3.734,5.855.544.798,1.095,1.59,1.658,2.373,1.694,2.354,3.472,4.641,5.341,6.852.604.715,1.234,1.406,1.856,2.105,2.617,2.942,5.395,5.734,8.309,8.382.14-.122.278-.248.419-.368,2.002-1.692,4.129-3.357,6.325-4.965Z" fill="#fff"/>
          <path d="M102.349,51.549c-6.817-5.281-12.818-11.562-17.742-18.657-1.962-2.827-3.753-5.78-5.362-8.844-2.129-4.051-3.934-8.295-5.388-12.699-1.21-3.666-2.169-7.441-2.868-11.308-.529-.012-1.055-.04-1.586-.04s-1.057.028-1.587.04c-1.819.041-3.625.132-5.407.31.626,3.747,1.476,7.416,2.539,10.998,1.215,4.095,2.709,8.068,4.454,11.906,1.594,3.505,3.384,6.903,5.386,10.159,1.65,2.684,3.439,5.273,5.346,7.767,4.173,5.461,8.946,10.435,14.208,14.846.423-.258.844-.515,1.263-.762,2.336-1.384,4.558-2.607,6.744-3.716Z" fill="#fff"/>
        </g>
        <g>
          <path d="M77.39,86.312c3.685-4.169,7.69-8.049,12.004-11.57,2.303-1.879,4.685-3.664,7.148-5.34,2.85-1.939,5.802-3.739,8.847-5.387,3.032-1.64,6.159-3.123,9.365-4.455,7.017-2.917,14.43-5.06,22.131-6.348-.669-2.798-1.499-5.532-2.495-8.187-10.017,1.779-19.583,4.881-28.478,9.172-2.836,1.369-5.594,2.874-8.289,4.472-1.995,1.182-3.945,2.431-5.855,3.734-.798.544-1.59,1.095-2.374,1.658-2.354,1.694-4.641,3.471-6.852,5.34-.715.604-1.406,1.234-2.105,1.856-2.941,2.617-5.732,5.393-8.379,8.306.122.14.246.281.365.422,1.692,2.002,3.358,4.13,4.966,6.327Z" fill="#fff"/>
          <path d="M138.764,67.817c-.041-1.819-.132-3.625-.31-5.407-3.747.626-7.416,1.476-10.998,2.539-4.094,1.215-8.067,2.708-11.905,4.453-3.506,1.594-6.903,3.384-10.161,5.387-2.684,1.65-5.272,3.439-7.767,5.345-5.464,4.176-10.441,8.951-14.855,14.217.256.417.525.838.771,1.253,1.379,2.327,2.602,4.549,3.716,6.745,5.28-6.817,11.562-12.818,18.657-17.742,2.827-1.962,5.778-3.752,8.842-5.362,4.052-2.129,8.296-3.935,12.701-5.388,3.665-1.21,7.441-2.169,11.308-2.868.012-.529.04-1.054.04-1.586s-.028-1.056-.04-1.585Z" fill="#fff"/>
        </g>
        <path d="M28.643,52.282c-7.671-3.301-15.786-5.756-24.229-7.256-.997,2.655-1.827,5.389-2.495,8.187,5.884.984,11.593,2.48,17.092,4.427,1.079-.506,2.147-1.031,3.197-1.583,2.197-1.154,4.354-2.42,6.436-3.774Z" fill="#fff"/>
        <path d="M52.28,110.16c-3.301,7.671-5.756,15.785-7.256,24.229,2.656.997,5.39,1.827,8.188,2.496.984-5.883,2.479-11.592,4.426-17.09-.506-1.078-1.031-2.146-1.583-3.198-1.155-2.197-2.42-4.354-3.775-6.438Z" fill="#fff"/>
        <path d="M86.523,28.644c3.301-7.671,5.756-15.786,7.257-24.23-2.656-.996-5.39-1.827-8.189-2.496-.984,5.883-2.479,11.592-4.426,17.09.506,1.078,1.031,2.146,1.583,3.197,1.154,2.198,2.42,4.355,3.775,6.439Z" fill="#fff"/>
        <path d="M110.16,86.523c7.671,3.301,15.785,5.756,24.229,7.256.996-2.655,1.827-5.389,2.495-8.187-5.884-.984-11.593-2.48-17.092-4.427-1.078.506-2.146,1.031-3.197,1.584-2.2,1.156-4.356,2.421-6.436,3.774Z" fill="#fff"/>
      </g>
    </g>
  </g>
</svg>