<?xml version="1.0" encoding="UTF-8" standalone="no"?>
<!-- Created with Inkscape (http://www.inkscape.org/) -->

<svg
   width="163.11501mm"
   height="180.832mm"
   viewBox="0 0 163.11501 180.832"
   version="1.1"
   id="svg1"
   inkscape:version="1.3.2 (091e20e, 2023-11-25, custom)"
   sodipodi:docname="KOKH (2017, ID variant).svg"
   xmlns:inkscape="http://www.inkscape.org/namespaces/inkscape"
   xmlns:sodipodi="http://sodipodi.sourceforge.net/DTD/sodipodi-0.dtd"
   xmlns="http://www.w3.org/2000/svg"
   xmlns:svg="http://www.w3.org/2000/svg">
  <sodipodi:namedview
     id="namedview1"
     pagecolor="#ffffff"
     bordercolor="#000000"
     borderopacity="0.25"
     inkscape:showpageshadow="2"
     inkscape:pageopacity="0.0"
     inkscape:pagecheckerboard="0"
     inkscape:deskcolor="#d1d1d1"
     inkscape:document-units="mm"
     inkscape:zoom="0.69219276"
     inkscape:cx="280.26875"
     inkscape:cy="377.78494"
     inkscape:window-width="1920"
     inkscape:window-height="991"
     inkscape:window-x="-9"
     inkscape:window-y="-9"
     inkscape:window-maximized="1"
     inkscape:current-layer="layer1" />
  <defs
     id="defs1">
    <rect
       x="80.902321"
       y="826.35944"
       width="687.66974"
       height="112.68537"
       id="rect1" />
  </defs>
  <g
     inkscape:label="Layer 1"
     inkscape:groupmode="layer"
     id="layer1"
     transform="translate(-30.53903,-48.202995)">
    <path
       d="m 84.195679,870.18607 c 0,0.304 0.202667,0.50667 0.506667,0.50667 h 6.434671 c 0.304,0 0.506667,-0.20267 0.506667,-0.50667 v -8.76534 l 4.509336,-5.67467 7.80267,14.49068 c 0.20267,0.35466 0.35467,0.456 0.76,0.456 h 7.44801 c 0.35466,0 0.50666,-0.25334 0.304,-0.608 l -11.40001,-20.11468 10.43734,-13.07201 c 0.25333,-0.304 0.10133,-0.65867 -0.20267,-0.65867 h -7.34667 c -0.40533,0 -0.608,0.10133 -0.86133,0.456 l -11.450676,14.94668 v -14.89601 c 0,-0.304 -0.202667,-0.50667 -0.506667,-0.50667 h -6.434671 c -0.304,0 -0.506667,0.20267 -0.506667,0.50667 z m 43.624001,1.064 c 6.02934,0 10.79201,-2.78667 12.56534,-8.36001 0.76,-2.38133 0.96267,-4.30666 0.96267,-9.424 0,-5.11734 -0.20267,-7.04267 -0.96267,-9.42401 -1.77333,-5.57333 -6.536,-8.36 -12.56534,-8.36 -6.02933,0 -10.792,2.78667 -12.56534,8.36 -0.76,2.38134 -0.96267,4.30667 -0.96267,9.42401 0,5.11734 0.20267,7.04267 0.96267,9.424 1.77334,5.57334 6.53601,8.36001 12.56534,8.36001 z m 0,-6.58667 c -2.83733,0 -4.66133,-1.41867 -5.42133,-3.8 -0.40534,-1.216 -0.55734,-2.88801 -0.55734,-7.39734 0,-4.50934 0.152,-6.18134 0.55734,-7.39734 0.76,-2.38133 2.584,-3.8 5.42133,-3.8 2.83734,0 4.66134,1.41867 5.42134,3.8 0.40533,1.216 0.55733,2.888 0.55733,7.39734 0,4.50933 -0.152,6.18134 -0.55733,7.39734 -0.76,2.38133 -2.584,3.8 -5.42134,3.8 z m 19.20269,5.52267 c 0,0.304 0.20267,0.50667 0.50667,0.50667 h 6.43467 c 0.304,0 0.50667,-0.20267 0.50667,-0.50667 v -8.76534 l 4.50933,-5.67467 7.80268,14.49068 c 0.20266,0.35466 0.35466,0.456 0.76,0.456 h 7.448 c 0.35467,0 0.50667,-0.25334 0.304,-0.608 l -11.40001,-20.11468 10.43734,-13.07201 c 0.25334,-0.304 0.10134,-0.65867 -0.20266,-0.65867 h -7.34667 c -0.40534,0 -0.608,0.10133 -0.86134,0.456 l -11.45067,14.94668 v -14.89601 c 0,-0.304 -0.20267,-0.50667 -0.50667,-0.50667 h -6.43467 c -0.304,0 -0.50667,0.20267 -0.50667,0.50667 z m 32.68005,0 c 0,0.304 0.20266,0.50667 0.50666,0.50667 h 6.43467 c 0.304,0 0.50667,-0.20267 0.50667,-0.50667 v -13.27468 c 0,-0.20266 0.10133,-0.304 0.304,-0.304 h 11.24801 c 0.20266,0 0.304,0.10134 0.304,0.304 v 13.27468 c 0,0.304 0.20266,0.50667 0.50667,0.50667 h 6.43467 c 0.304,0 0.50666,-0.20267 0.50666,-0.50667 v -33.44002 c 0,-0.304 -0.20266,-0.50667 -0.50666,-0.50667 h -6.43467 c -0.30401,0 -0.50667,0.20267 -0.50667,0.50667 v 12.92001 c 0,0.20266 -0.10134,0.304 -0.304,0.304 h -11.24801 c -0.20267,0 -0.304,-0.10134 -0.304,-0.304 v -12.92001 c 0,-0.304 -0.20267,-0.50667 -0.50667,-0.50667 h -6.43467 c -0.304,0 -0.50666,0.20267 -0.50666,0.50667 z m 32.68007,-9.82934 h 14.59201 c 0.304,0 0.50666,-0.20267 0.50666,-0.50667 v -5.168 c 0,-0.304 -0.20266,-0.50667 -0.50666,-0.50667 h -14.59201 c -0.304,0 -0.50667,0.20267 -0.50667,0.50667 v 5.168 c 0,0.304 0.20267,0.50667 0.50667,0.50667 z m 31.21069,10.33601 c 0.304,0 0.50667,-0.20267 0.50667,-0.50667 v -27.00535 c 0,-0.20267 0.10133,-0.304 0.304,-0.304 h 8.71467 c 0.304,0 0.50666,-0.20267 0.50666,-0.50667 v -5.624 c 0,-0.304 -0.20266,-0.50667 -0.50666,-0.50667 h -25.48535 c -0.304,0 -0.50667,0.20267 -0.50667,0.50667 v 5.624 c 0,0.304 0.20267,0.50667 0.50667,0.50667 h 8.71467 c 0.20267,0 0.304,0.10133 0.304,0.304 v 27.00535 c 0,0.304 0.20267,0.50667 0.50667,0.50667 z m 28.93065,0 c 0.304,0 0.50666,-0.20267 0.608,-0.50667 l 10.944,-33.38936 c 0.10134,-0.35466 -0.10133,-0.55733 -0.40533,-0.55733 h -6.53601 c -0.35466,0 -0.55733,0.152 -0.65866,0.50667 l -6.68801,22.59735 h -0.152 l -6.89067,-22.59735 c -0.10133,-0.35467 -0.304,-0.50667 -0.65866,-0.50667 h -6.58668 c -0.35466,0 -0.55733,0.20267 -0.456,0.55733 l 10.94401,33.38936 c 0.10133,0.304 0.304,0.50667 0.65867,0.50667 z m 38.50668,0.55733 c 6.02934,0 10.79201,-2.78667 12.56534,-8.36001 0.76001,-2.38133 0.96267,-4.30666 0.96267,-9.424 0,-5.11734 -0.20266,-7.04267 -0.96267,-9.42401 -1.77333,-5.57333 -6.536,-8.36 -12.56534,-8.36 -6.02933,0 -10.792,2.78667 -12.56534,8.36 -0.76,2.38134 -0.96267,4.30667 -0.96267,9.42401 0,5.11734 0.20267,7.04267 0.96267,9.424 1.77334,5.57334 6.53601,8.36001 12.56534,8.36001 z m 0,-6.58667 c -2.83733,0 -4.66133,-1.41867 -5.42133,-3.8 -0.40534,-1.216 -0.55734,-2.88801 -0.55734,-7.39734 0,-4.50934 0.152,-6.18134 0.55734,-7.39734 0.76,-2.38133 2.584,-3.8 5.42133,-3.8 2.83734,0 4.66134,1.41867 5.42134,3.8 0.40533,1.216 0.55733,2.888 0.55733,7.39734 0,4.50933 -0.152,6.18134 -0.55733,7.39734 -0.76,2.38133 -2.584,3.8 -5.42134,3.8 z m 19.20271,5.52267 c 0,0.304 0.20266,0.50667 0.50666,0.50667 h 6.43467 c 0.304,0 0.50667,-0.20267 0.50667,-0.50667 v -8.76534 l 4.50934,-5.67467 7.80267,14.49068 c 0.20266,0.35466 0.35467,0.456 0.76,0.456 h 7.448 c 0.35467,0 0.50667,-0.25334 0.304,-0.608 l -11.4,-20.11468 10.43734,-13.07201 c 0.25333,-0.304 0.10133,-0.65867 -0.20267,-0.65867 h -7.34667 c -0.40534,0 -0.608,0.10133 -0.86134,0.456 l -11.45067,14.94668 v -14.89601 c 0,-0.304 -0.20267,-0.50667 -0.50667,-0.50667 h -6.43467 c -0.304,0 -0.50666,0.20267 -0.50666,0.50667 z m 32.68002,0 c 0,0.304 0.20267,0.50667 0.50667,0.50667 h 22.44534 c 0.304,0 0.50667,-0.20267 0.50667,-0.50667 v -5.624 c 0,-0.304 -0.20267,-0.50667 -0.50667,-0.50667 h -15.20001 c -0.20266,0 -0.304,-0.10133 -0.304,-0.304 v -27.00535 c 0,-0.304 -0.20266,-0.50667 -0.50666,-0.50667 h -6.43467 c -0.304,0 -0.50667,0.20267 -0.50667,0.50667 z m 25.28267,0 c -0.10134,0.304 0,0.50667 0.35466,0.50667 h 6.63734 c 0.35467,0 0.55733,-0.152 0.65867,-0.50667 l 1.92533,-6.02934 h 12.05868 l 1.976,6.02934 c 0.10133,0.35467 0.304,0.50667 0.65866,0.50667 h 6.58668 c 0.35466,0 0.456,-0.20267 0.35466,-0.50667 l -11.65334,-33.44002 c -0.10133,-0.304 -0.304,-0.50667 -0.65867,-0.50667 h -6.384 c -0.35467,0 -0.55733,0.20267 -0.65867,0.50667 z m 11.65334,-12.36268 3.90133,-12.05867 h 0.152 l 3.90134,12.05867 z m 23.55996,12.36268 c 0,0.304 0.20267,0.50667 0.50667,0.50667 h 6.43467 c 0.304,0 0.50667,-0.20267 0.50667,-0.50667 v -13.27468 c 0,-0.20266 0.10133,-0.304 0.304,-0.304 h 11.248 c 0.20267,0 0.304,0.10134 0.304,0.304 v 13.27468 c 0,0.304 0.20267,0.50667 0.50667,0.50667 h 6.43467 c 0.304,0 0.50667,-0.20267 0.50667,-0.50667 v -33.44002 c 0,-0.304 -0.20267,-0.50667 -0.50667,-0.50667 h -6.43467 c -0.304,0 -0.50667,0.20267 -0.50667,0.50667 v 12.92001 c 0,0.20266 -0.10133,0.304 -0.304,0.304 h -11.248 c -0.20267,0 -0.304,-0.10134 -0.304,-0.304 v -12.92001 c 0,-0.304 -0.20267,-0.50667 -0.50667,-0.50667 h -6.43467 c -0.304,0 -0.50667,0.20267 -0.50667,0.50667 z m 45.95472,1.064 c 6.02934,0 10.79201,-2.78667 12.56534,-8.36001 0.76,-2.38133 0.96267,-4.30666 0.96267,-9.424 0,-5.11734 -0.20267,-7.04267 -0.96267,-9.42401 -1.77333,-5.57333 -6.536,-8.36 -12.56534,-8.36 -6.02933,0 -10.792,2.78667 -12.56534,8.36 -0.76,2.38134 -0.96267,4.30667 -0.96267,9.42401 0,5.11734 0.20267,7.04267 0.96267,9.424 1.77334,5.57334 6.53601,8.36001 12.56534,8.36001 z m 0,-6.58667 c -2.83733,0 -4.66133,-1.41867 -5.42133,-3.8 -0.40534,-1.216 -0.55734,-2.88801 -0.55734,-7.39734 0,-4.50934 0.152,-6.18134 0.55734,-7.39734 0.76,-2.38133 2.584,-3.8 5.42133,-3.8 2.83734,0 4.66134,1.41867 5.42134,3.8 0.40533,1.216 0.55733,2.888 0.55733,7.39734 0,4.50933 -0.152,6.18134 -0.55733,7.39734 -0.76,2.38133 -2.584,3.8 -5.42134,3.8 z m 19.20272,5.52267 c 0,0.304 0.20267,0.50667 0.50667,0.50667 h 5.72533 c 0.304,0 0.50667,-0.20267 0.50667,-0.50667 v -19.40535 h 0.20267 l 6.384,14.54135 c 0.20267,0.456 0.50667,0.65866 0.96267,0.65866 h 3.496 c 0.456,0 0.76,-0.20266 0.96267,-0.65866 l 6.384,-14.54135 H 513.9 v 19.40535 c 0,0.304 0.20267,0.50667 0.50667,0.50667 h 5.72533 c 0.304,0 0.50667,-0.20267 0.50667,-0.50667 v -33.44002 c 0,-0.304 -0.20267,-0.50667 -0.50667,-0.50667 h -5.928 c -0.40533,0 -0.65867,0.152 -0.81067,0.50667 l -8.56267,19.65868 h -0.20267 l -8.71467,-19.65868 c -0.152,-0.35467 -0.40533,-0.50667 -0.81067,-0.50667 h -6.02933 c -0.304,0 -0.50667,0.20267 -0.50667,0.50667 z m 36.07469,0 c -0.10133,0.304 0,0.50667 0.35467,0.50667 h 6.63734 c 0.35466,0 0.55733,-0.152 0.65866,-0.50667 l 1.92534,-6.02934 h 12.05867 l 1.976,6.02934 c 0.10134,0.35467 0.304,0.50667 0.65867,0.50667 h 6.58667 c 0.35467,0 0.456,-0.20267 0.35467,-0.50667 l -11.65334,-33.44002 c -0.10134,-0.304 -0.304,-0.50667 -0.65867,-0.50667 h -6.384 c -0.35467,0 -0.55734,0.20267 -0.65867,0.50667 z m 11.65334,-12.36268 3.90134,-12.05867 h 0.152 l 3.90133,12.05867 z m 35.568,4.96534 c 1.824,5.624 6.232,8.46134 12.26134,8.46134 5.82667,0 10.08267,-2.83734 12.00801,-7.65067 0.152,-0.25334 0.0507,-0.50667 -0.25334,-0.608 l -5.52267,-2.48267 c -0.304,-0.152 -0.55733,-0.0507 -0.70933,0.25333 -0.96267,2.22934 -2.584,3.90134 -5.472,3.90134 -2.68534,0 -4.40801,-1.41867 -5.16801,-3.8 -0.40533,-1.26667 -0.55733,-2.48267 -0.55733,-7.39734 0,-4.91467 0.152,-6.13067 0.55733,-7.39734 0.76,-2.38133 2.48267,-3.8 5.16801,-3.8 2.888,0 4.50933,1.672 5.472,3.90133 0.152,0.304 0.40533,0.40534 0.70933,0.25334 l 5.52267,-2.48267 c 0.304,-0.10133 0.40534,-0.35467 0.25334,-0.608 -1.92534,-4.81334 -6.18134,-7.65067 -12.00801,-7.65067 -6.02934,0 -10.43734,2.83733 -12.26134,8.46134 -0.76,2.22933 -0.96267,4.00267 -0.96267,9.32267 0,5.32 0.20267,7.09334 0.96267,9.32267 z m 29.08269,7.39734 c 0,0.304 0.20267,0.50667 0.50667,0.50667 h 6.43467 c 0.304,0 0.50667,-0.20267 0.50667,-0.50667 v -33.44002 c 0,-0.304 -0.20267,-0.50667 -0.50667,-0.50667 h -6.43467 c -0.304,0 -0.50667,0.20267 -0.50667,0.50667 z m 28.06941,0.50667 c 0.304,0 0.50667,-0.20267 0.50667,-0.50667 v -27.00535 c 0,-0.20267 0.10133,-0.304 0.304,-0.304 h 8.71467 c 0.304,0 0.50666,-0.20267 0.50666,-0.50667 v -5.624 c 0,-0.304 -0.20266,-0.50667 -0.50666,-0.50667 h -25.48535 c -0.304,0 -0.50667,0.20267 -0.50667,0.50667 v 5.624 c 0,0.304 0.20267,0.50667 0.50667,0.50667 h 8.71467 c 0.20267,0 0.304,0.10133 0.304,0.304 v 27.00535 c 0,0.304 0.20267,0.50667 0.50667,0.50667 z m 28.47465,0 c 0.304,0 0.50666,-0.20267 0.50666,-0.50667 v -13.22401 l 10.18401,-20.21601 c 0.152,-0.25334 0,-0.50667 -0.35467,-0.50667 h -6.384 c -0.35467,0 -0.608,0.152 -0.76,0.50667 l -6.23201,12.56534 h -0.152 l -6.232,-12.56534 c -0.152,-0.35467 -0.40533,-0.50667 -0.76,-0.50667 h -6.58667 c -0.35467,0 -0.456,0.25333 -0.35467,0.50667 l 10.18401,20.21601 v 13.22401 c 0,0.304 0.20266,0.50667 0.50666,0.50667 z"
       id="text1"
       style="font-weight:bold;font-size:50.6667px;font-family:'DIN Next LT Pro';-inkscape-font-specification:'DIN Next LT Pro, Bold';white-space:pre;fill:#1a1a1a;fill-rule:evenodd;stroke:#ffffff;stroke-width:1.88976;stroke-miterlimit:5;paint-order:markers stroke fill"
       transform="matrix(0.26458333,0,0,0.26458333,12.173117,-5.1458815)"
       aria-label="KOKH-TV OKLAHOMA CITY" />
    <rect
       class="cls-4"
       x="35.965797"
       width="152.38132"
       height="159.93408"
       id="rect1-0"
       style="font-size:25.4px;font-family:DIN;-inkscape-font-specification:'DIN, Normal';fill:#ffffff;fill-rule:evenodd;stroke-width:0px;stroke-miterlimit:5;paint-order:markers stroke fill"
       y="51.544483" />
    <path
       class="cls-5"
       d="m 190.46539,113.49089 c -0.24585,-20.258255 -0.90199,-40.050608 -1.95432,-59.193551 -0.0548,-0.917622 -0.10952,-1.849351 -0.16427,-2.752847 H 35.965794 c -0.05464,0.917601 -0.109358,1.849351 -0.163996,2.752847 -1.038659,19.157068 -1.69465,38.935296 -1.940646,59.193551 -0.08196,5.94333 -0.122987,11.94316 -0.122987,17.97122 0,9.48675 0.09564,18.88886 0.273348,28.17804 0.327995,17.70296 0.997649,35.01068 1.954305,51.82429 H 188.34709 c 0.95667,-16.81361 1.62633,-34.12133 1.95433,-51.82429 0.17766,-9.28918 0.27326,-18.69129 0.27326,-28.17804 0,-6.02806 -0.0258,-12.01376 -0.12291,-17.97122 z M 38.685425,59.407791 V 54.297339 H 185.64113 v 5.110452 c 0.95667,17.519444 1.55795,35.589501 1.7903,54.083099 H 36.89511 c 0.232327,-18.493598 0.847325,-36.563655 1.790315,-54.083099 z"
       id="path1"
       style="font-size:25.4px;font-family:DIN;-inkscape-font-specification:'DIN, Normal';fill:#991f2a;fill-rule:evenodd;stroke-width:0px;stroke-miterlimit:5;paint-order:markers stroke fill" />
    <g
       id="g3"
       transform="matrix(1.3666484,0,0,1.4117228,33.738157,51.544492)"
       style="font-size:25.4px;font-family:DIN;-inkscape-font-specification:'DIN, Normal';fill:#1a1a1a;fill-rule:evenodd;stroke-width:6.00001;stroke-miterlimit:5;paint-order:markers stroke fill">
      <path
         class="cls-1"
         d="M 3.62,1.95 V 43.88 H 2.31 C 2.48,29.54 2.93,15.54 3.62,1.95 Z"
         id="path2"
         style="fill:#7d7d7d;stroke-width:0px" />
      <path
         class="cls-1"
         d="m 112.46,43.88 h -1.31 V 1.95 c 0.7,13.59 1.14,27.59 1.31,41.93 z"
         id="path3"
         style="fill:#7d7d7d;stroke-width:0px" />
    </g>
    <path
       class="cls-3"
       d="m 190.31505,159.65421 c -0.32801,17.70303 -0.99763,35.01075 -1.95429,51.8244 H 35.965794 c -0.956656,-16.81365 -1.626311,-34.12137 -1.954305,-51.8244 H 190.3014 Z"
       id="path4-8"
       style="font-size:25.4px;font-family:DIN;-inkscape-font-specification:'DIN, Normal';fill:#7e111d;fill-rule:evenodd;stroke-width:0px;stroke-miterlimit:5;paint-order:markers stroke fill" />
    <g
       id="g7"
       transform="matrix(1.3666484,0,0,1.4117228,33.738157,51.544492)"
       style="font-size:25.4px;font-family:DIN;-inkscape-font-specification:'DIN, Normal';fill:#1a1a1a;fill-rule:evenodd;stroke-width:6.00001;stroke-miterlimit:5;paint-order:markers stroke fill">
      <path
         class="cls-1"
         d="m 81.76,68.65 c 0,0 -4.04,-0.85 -7.34,-0.85 v -4.19 h 15.44 l 2.97,-1.35 3.3,-11.07 H 61.75 l -1.6,1.62 v 29.61 c 0,0 7.03,-3.67 12.13,-3.67 3.92,0 8.62,1.92 8.62,7.24 0,5.32 -3.44,8.64 -8.27,8.64 -4.83,0 -8.99,-2.59 -10.9,-6.2 l -0.84,2.1 -1.21,2.74 H 45.19 c 0,0 13.18,-12.87 13.42,-23.8 0.06,-0.53 0,0.52 0,0 0,-13.15 -11.24,-19.56 -20.72,-19.56 -9.48,0 -19.59,4.15 -21.4,17.46 l 4.79,1.56 H 34 c 0,0 -0.26,-6.45 6.03,-6.45 1.63,0 2.89,0.33 3.88,0.84 1.34,1.62 1.63,3.56 1.63,4.57 0,1.92 -0.85,6.5 -4.36,10.76 0,0 -8.83,10.75 -11.39,13.62 -2.56,2.88 -11.92,13.2 -11.92,13.2 h 37.26 l 1.58,-5.46 v 0 c 0,0 0,0 0,0 0,0 3.1,6.85 18,6.85 14.9,0 23.52,-8.62 23.52,-19.59 0,-10.97 -7.88,-17.03 -16.5,-18.63 z m -22.44,25.44 0.12,-0.22 v -0.02 c 0,0 -0.09,0.24 -0.09,0.24 h -0.02 z"
         id="path5"
         style="fill:#7d7d7d;stroke-width:0px" />
      <path
         class="cls-4"
         d="M 60.15,94.09 H 42.37 c 0,0 15.65,-14.58 15.65,-26.5 0,-11.92 -10.64,-17.67 -20.12,-17.67 -9.48,0 -19.59,4.15 -21.39,17.46 h 13.2 c 0,0 0.11,-6.71 7.45,-6.71 7.34,0 8.41,5.32 8.41,7.24 0,1.92 -0.85,6.49 -4.36,10.75 0,0 -8.83,10.75 -11.39,13.62 -2.55,2.87 -11.92,13.2 -11.92,13.2 h 37.25 l 1.58,-5.46 z"
         id="path6"
         style="fill:#ffffff;stroke-width:0px" />
      <path
         class="cls-4"
         d="m 61.22,89.84 -4.48,10.18 c 0,0 3.1,6.85 18,6.85 14.9,0 23.52,-8.62 23.52,-19.59 0,-10.97 -7.88,-17.03 -16.5,-18.63 0,0 -4.04,-0.85 -7.34,-0.85 V 62.27 H 92.83 L 96.13,51.2 H 61.75 v 29.27 c 0,0 6.17,-2.77 12.13,-2.77 5.96,0 11.07,2.77 11.07,8.41 0,5.64 -4.9,9.26 -10.54,9.26 -5.64,0 -10.96,-1.7 -13.2,-5.53 z"
         id="path7"
         style="fill:#ffffff;stroke-width:0px" />
    </g>
    <g
       id="g11"
       transform="matrix(1.3666484,0,0,1.4117228,33.738157,51.544492)"
       style="font-size:25.4px;font-family:DIN;-inkscape-font-specification:'DIN, Normal';fill:#1a1a1a;fill-rule:evenodd;stroke-width:6.00001;stroke-miterlimit:5;paint-order:markers stroke fill">
      <g
         id="g8">
        <polygon
           class="cls-1"
           points="27.65,39.82 27.65,28.48 37.06,28.48 37.06,18.9 27.65,18.9 27.65,14.33 39.18,14.33 38.52,4.7 17.99,4.7 17.99,39.82 "
           id="polygon7"
           style="fill:#7d7d7d;stroke-width:0px" />
        <polygon
           class="cls-1"
           points="95.89,4.7 85.32,4.7 81.27,12.3 77.27,4.7 66.35,4.7 75.91,21.71 65.79,39.93 76.41,39.93 81.12,31.03 85.97,39.93 96.85,39.93 86.53,21.61 "
           id="polygon8"
           style="fill:#7d7d7d;stroke-width:0px" />
      </g>
      <g
         id="g10">
        <polygon
           class="cls-2"
           points="25.84,39.82 25.84,28.48 35.25,28.48 35.25,18.9 25.84,18.9 25.84,14.33 37.38,14.33 36.72,4.7 16.18,4.7 16.18,39.82 "
           id="polygon9"
           style="stroke-width:0px" />
        <polygon
           class="cls-2"
           points="97.63,4.7 87.06,4.7 83.01,12.3 79.01,4.7 68.09,4.7 77.65,21.71 67.53,39.93 78.15,39.93 82.86,31.03 87.71,39.93 98.59,39.93 88.27,21.61 "
           id="polygon10"
           style="stroke-width:0px" />
        <path
           class="cls-2"
           d="M 66.4,10.1 C 63.19,6.73 59.33,5.05 54.8,5.05 c -4.53,0 -8.44,1.68 -11.65,5.05 -3.21,3.36 -4.82,7.43 -4.82,12.19 0,4.76 1.61,8.87 4.82,12.24 3.2,3.36 7.08,5.04 11.65,5.04 4.57,0 8.39,-1.68 11.6,-5.04 3.2,-3.37 4.81,-7.45 4.81,-12.24 0,-4.79 -1.6,-8.83 -4.81,-12.19 z m -8.68,19.22 c 0,0.78 -0.27,1.46 -0.82,2.04 -0.55,0.58 -1.21,0.87 -2.01,0.87 -0.8,0 -1.47,-0.29 -2.03,-0.87 C 52.3,30.78 52.02,30.1 52.02,29.32 V 15.09 c 0,-0.81 0.27,-1.51 0.84,-2.09 0.56,-0.58 1.24,-0.87 2.03,-0.87 0.79,0 1.46,0.29 2.01,0.87 0.55,0.58 0.82,1.27 0.82,2.09 z"
           id="path10-2"
           style="stroke-width:0px" />
      </g>
    </g>
  </g>
</svg>
