<?xml version="1.0" encoding="UTF-8"?>
<svg id="a" data-name="Layer 3" xmlns="http://www.w3.org/2000/svg" width="280.34" height="280.34" viewBox="0 0 280.34 280.34">
  <g id="b" data-name="Layer 1">
    <g>
      <g>
        <path d="M124.036,106.017c-7.444,8.42-15.532,16.256-24.245,23.367-4.651,3.796-9.463,7.401-14.438,10.786-5.755,3.917-11.717,7.551-17.868,10.88-6.122,3.313-12.44,6.308-18.914,8.999-14.173,5.891-29.144,10.219-44.697,12.821,1.351,5.651,3.028,11.173,5.041,16.535,20.23-3.594,39.548-9.857,57.514-18.526,5.729-2.764,11.297-5.805,16.742-9.032,4.029-2.388,7.967-4.91,11.826-7.541,1.611-1.099,3.211-2.211,4.793-3.349,4.754-3.421,9.374-7.011,13.838-10.786,1.444-1.22,2.84-2.494,4.251-3.75,5.941-5.286,11.579-10.896,16.927-16.779-.245-.283-.5-.56-.743-.845-3.422-4.05-6.786-8.347-10.029-12.778Z" fill="#fff"/>
        <path d="M104.11,73.629c-10.665,13.769-23.351,25.889-37.681,35.834-5.71,3.963-11.671,7.578-17.858,10.83-8.182,4.301-16.755,7.947-25.652,10.883-7.403,2.444-15.029,4.381-22.839,5.793-.023,1.068-.08,2.127-.08,3.201s.057,2.135.08,3.203c.083,3.673.267,7.322.627,10.92,7.567-1.264,14.978-2.982,22.211-5.128,8.27-2.454,16.294-5.471,24.045-8.995,7.081-3.22,13.943-6.836,20.522-10.88,5.42-3.332,10.649-6.945,15.686-10.796,11.035-8.434,21.088-18.079,30.001-28.714-.515-.843-1.061-1.694-1.557-2.53-2.79-4.708-5.259-9.196-7.505-13.622Z" fill="#fff"/>
      </g>
      <g>
        <path d="M170.879,213.91c-2.765-5.73-5.806-11.298-9.033-16.744-2.388-4.029-4.91-7.967-7.541-11.825-1.099-1.611-2.21-3.212-3.349-4.793-3.421-4.754-7.012-9.374-10.786-13.839-1.221-1.443-2.494-2.839-3.75-4.251-5.286-5.942-10.896-11.58-16.78-16.928-.28.243-.562.503-.845.742-4.051,3.424-8.348,6.789-12.778,10.031,8.42,7.444,16.255,15.532,23.366,24.245,3.796,4.651,7.401,9.463,10.787,14.438,3.916,5.756,7.55,11.716,10.878,17.867,3.314,6.124,6.309,12.442,8.999,18.917,5.89,14.173,10.218,29.143,12.819,44.694,5.652-1.351,11.175-3.028,16.538-5.041-3.594-20.23-9.858-39.55-18.526-57.515Z" fill="#fff"/>
        <path d="M73.627,176.229c13.768,10.665,25.887,23.351,35.833,37.681,3.963,5.71,7.579,11.674,10.831,17.861,4.3,8.182,7.945,16.752,10.882,25.648,2.442,7.403,4.381,15.029,5.793,22.84,1.068.024,2.129.081,3.204.081s2.135-.057,3.203-.081c3.674-.083,7.323-.267,10.921-.627-1.264-7.568-2.982-14.98-5.128-22.213-2.454-8.271-5.47-16.295-8.996-24.047-3.22-7.08-6.836-13.941-10.88-20.518-3.332-5.421-6.945-10.649-10.797-15.688-8.434-11.035-18.079-21.087-28.714-30-.843.516-1.694,1.061-2.531,1.557-4.711,2.791-9.199,5.261-13.621,7.505Z" fill="#fff"/>
      </g>
      <g>
        <path d="M174.322,124.036c-8.42-7.444-16.255-15.532-23.366-24.245-3.796-4.651-7.401-9.464-10.786-14.439-3.916-5.756-7.551-11.716-10.88-17.867-3.313-6.124-6.307-12.441-8.999-18.917-5.889-14.172-10.218-29.142-12.818-44.694-5.652,1.351-11.176,3.028-16.539,5.041,3.595,20.23,9.858,39.55,18.527,57.515,2.764,5.729,5.806,11.297,9.032,16.743,2.388,4.029,4.91,7.967,7.541,11.825,1.099,1.611,2.211,3.212,3.349,4.793,3.421,4.754,7.012,9.374,10.787,13.839,1.22,1.443,2.493,2.839,3.749,4.251,5.286,5.942,10.897,11.58,16.781,16.928.283-.246.561-.501.846-.744,4.043-3.417,8.339-6.781,12.775-10.029Z" fill="#fff"/>
        <path d="M206.712,104.112c-13.768-10.665-25.889-23.351-35.834-37.682-3.963-5.71-7.579-11.674-10.83-17.862-4.3-8.182-7.946-16.753-10.882-25.649-2.443-7.403-4.381-15.028-5.792-22.839-1.069-.024-2.13-.081-3.204-.081s-2.135.057-3.204.081c-3.674.083-7.322.267-10.92.627,1.263,7.567,2.982,14.979,5.128,22.212,2.453,8.271,5.471,16.295,8.996,24.046,3.219,7.08,6.835,13.941,10.878,20.519,3.332,5.421,6.946,10.649,10.798,15.688,8.429,11.029,18.068,21.075,28.695,29.985.853-.522,1.705-1.039,2.55-1.54,4.718-2.795,9.206-5.264,13.621-7.506Z" fill="#fff"/>
      </g>
      <g>
        <path d="M156.304,174.323c7.443-8.42,15.532-16.256,24.245-23.367,4.651-3.796,9.463-7.401,14.437-10.786,5.756-3.916,11.717-7.551,17.869-10.88,6.123-3.313,12.439-6.307,18.914-8.998,14.173-5.891,29.144-10.219,44.697-12.82-1.351-5.651-3.027-11.173-5.039-16.535-20.231,3.594-39.551,9.857-57.516,18.525-5.729,2.764-11.297,5.805-16.742,9.032-4.029,2.388-7.967,4.91-11.825,7.541-1.612,1.098-3.212,2.211-4.794,3.349-4.754,3.421-9.374,7.01-13.838,10.785-1.444,1.22-2.84,2.493-4.251,3.749-5.94,5.285-11.577,10.893-16.923,16.775.246.283.497.568.738.852,3.418,4.044,6.781,8.34,10.029,12.778Z" fill="#fff"/>
        <path d="M280.259,136.969c-.083-3.674-.266-7.322-.627-10.921-7.568,1.264-14.979,2.982-22.212,5.128-8.269,2.453-16.293,5.47-24.044,8.994-7.081,3.22-13.943,6.836-20.522,10.88-5.421,3.332-10.649,6.945-15.686,10.796-11.036,8.434-21.088,18.079-30.001,28.713.516.843,1.061,1.693,1.558,2.53,2.785,4.699,5.255,9.187,7.506,13.622,10.665-13.768,23.351-25.888,37.681-35.833,5.709-3.963,11.671-7.578,17.858-10.83,8.183-4.301,16.755-7.947,25.652-10.883,7.403-2.443,15.028-4.382,22.838-5.793.024-1.069.081-2.129.081-3.203s-.057-2.133-.081-3.201Z" fill="#fff"/>
      </g>
      <path d="M57.85,105.593c-15.493-6.666-31.882-11.625-48.936-14.655-2.013,5.362-3.689,10.884-5.04,16.535,11.883,1.988,23.415,5.008,34.52,8.941,2.179-1.023,4.337-2.083,6.457-3.198,4.438-2.331,8.793-4.887,12.999-7.622Z" fill="#fff"/>
      <path d="M105.59,222.489c-6.666,15.493-11.626,31.882-14.656,48.936,5.363,2.013,10.886,3.69,16.538,5.041,1.987-11.881,5.007-23.412,8.939-34.517-1.022-2.178-2.082-4.335-3.197-6.458-2.332-4.438-4.889-8.794-7.625-13.002Z" fill="#fff"/>
      <path d="M174.748,57.852c6.666-15.493,11.626-31.882,14.656-48.937-5.363-2.013-10.887-3.69-16.539-5.041-1.987,11.881-5.007,23.412-8.939,34.517,1.023,2.178,2.083,4.335,3.198,6.456,2.331,4.439,4.888,8.796,7.624,13.004Z" fill="#fff"/>
      <path d="M222.489,174.749c15.493,6.666,31.882,11.625,48.936,14.655,2.012-5.362,3.689-10.884,5.04-16.535-11.883-1.988-23.415-5.008-34.521-8.941-2.177,1.022-4.334,2.083-6.457,3.198-4.443,2.335-8.798,4.89-12.998,7.622Z" fill="#fff"/>
    </g>
  </g>
</svg>