<?xml version="1.0" encoding="UTF-8"?>
<svg id="a" data-name="Layer 2" xmlns="http://www.w3.org/2000/svg" width="486.557" height="315.872" viewBox="0 0 486.557 315.872">
  <g id="b" data-name="Layer 1">
    <g>
      <g>
        <g>
          <path d="M230.502,66.299c-4.655,5.266-9.713,10.166-15.162,14.613-2.909,2.374-5.917,4.628-9.029,6.745-3.599,2.449-7.327,4.722-11.174,6.804-3.829,2.072-7.779,3.945-11.828,5.627-8.863,3.684-18.226,6.391-27.952,8.018.845,3.534,1.894,6.987,3.152,10.34,12.651-2.248,24.732-6.164,35.967-11.585,3.583-1.729,7.064-3.63,10.47-5.649,2.52-1.493,4.982-3.07,7.396-4.716,1.007-.687,2.008-1.383,2.998-2.094,2.973-2.139,5.862-4.384,8.654-6.745.903-.763,1.776-1.559,2.659-2.345,3.715-3.306,7.241-6.814,10.585-10.493-.153-.177-.313-.35-.464-.529-2.14-2.532-4.244-5.22-6.272-7.991Z" fill="#f5a623"/>
          <path d="M218.042,46.044c-6.669,8.61-14.603,16.19-23.564,22.409-3.571,2.478-7.299,4.739-11.168,6.772-5.117,2.69-10.478,4.97-16.042,6.806-4.629,1.528-9.398,2.74-14.283,3.623-.015.668-.05,1.33-.05,2.002s.036,1.335.05,2.003c.052,2.297.167,4.579.392,6.829,4.732-.79,9.367-1.865,13.89-3.207,5.172-1.534,10.189-3.421,15.037-5.625,4.428-2.014,8.719-4.275,12.833-6.804,3.39-2.084,6.659-4.343,9.81-6.751,6.901-5.275,13.188-11.306,18.761-17.956-.322-.527-.664-1.059-.974-1.582-1.745-2.944-3.289-5.751-4.693-8.519Z" fill="#f5a623"/>
        </g>
        <g>
          <path d="M259.796,133.771c-1.729-3.583-3.631-7.065-5.649-10.471-1.494-2.52-3.07-4.982-4.716-7.395-.687-1.007-1.382-2.008-2.094-2.997-2.139-2.973-4.385-5.862-6.745-8.654-.764-.903-1.56-1.776-2.345-2.658-3.306-3.716-6.814-7.242-10.494-10.586-.175.152-.352.314-.528.464-2.533,2.142-5.22,4.245-7.991,6.273,5.266,4.655,10.166,9.713,14.612,15.162,2.374,2.909,4.628,5.918,6.746,9.029,2.449,3.599,4.722,7.327,6.803,11.173,2.072,3.83,3.945,7.781,5.628,11.83,3.684,8.863,6.39,18.225,8.017,27.95,3.535-.845,6.988-1.894,10.342-3.153-2.248-12.651-6.165-24.733-11.585-35.967Z" fill="#4794b5"/>
          <path d="M198.979,110.207c8.61,6.669,16.189,14.603,22.409,23.564,2.479,3.571,4.74,7.3,6.773,11.17,2.689,5.116,4.969,10.476,6.805,16.039,1.527,4.63,2.74,9.399,3.623,14.283.668.015,1.332.051,2.003.051s1.335-.036,2.003-.051c2.298-.052,4.58-.167,6.83-.392-.791-4.732-1.865-9.368-3.207-13.891-1.535-5.172-3.421-10.19-5.625-15.038-2.014-4.427-4.275-8.718-6.804-12.831-2.084-3.39-4.343-6.659-6.752-9.81-5.274-6.901-11.306-13.187-17.957-18.761-.527.322-1.059.664-1.583.974-2.946,1.745-5.753,3.29-8.518,4.693Z" fill="#4794b5"/>
        </g>
        <g>
          <path d="M261.949,77.567c-5.266-4.655-10.166-9.713-14.612-15.162-2.374-2.909-4.628-5.918-6.745-9.029-2.449-3.599-4.722-7.327-6.804-11.173-2.072-3.83-3.944-7.78-5.627-11.83-3.683-8.863-6.39-18.225-8.016-27.95-3.535.845-6.989,1.894-10.343,3.153,2.248,12.651,6.165,24.733,11.586,35.967,1.729,3.583,3.631,7.065,5.648,10.47,1.493,2.52,3.07,4.982,4.716,7.395.687,1.007,1.383,2.008,2.094,2.997,2.14,2.973,4.385,5.862,6.746,8.654.763.903,1.559,1.776,2.345,2.658,3.306,3.716,6.814,7.242,10.494,10.586.177-.154.351-.314.529-.465,2.528-2.137,5.215-4.24,7.989-6.271Z" fill="#d43365"/>
          <path d="M282.205,65.108c-8.61-6.669-16.19-14.603-22.409-23.565-2.478-3.571-4.74-7.3-6.773-11.17-2.689-5.117-4.969-10.477-6.805-16.04-1.528-4.63-2.74-9.398-3.622-14.282-.668-.015-1.332-.051-2.003-.051s-1.335.036-2.004.051c-2.297.052-4.579.167-6.829.392.79,4.732,1.865,9.367,3.207,13.89,1.534,5.172,3.421,10.19,5.626,15.038,2.013,4.427,4.274,8.718,6.803,12.832,2.084,3.39,4.344,6.66,6.752,9.81,5.271,6.897,11.299,13.18,17.945,18.751.534-.326,1.066-.65,1.595-.963,2.95-1.748,5.757-3.292,8.518-4.694Z" fill="#d43365"/>
        </g>
        <g>
          <path d="M250.681,109.015c4.655-5.266,9.713-10.166,15.162-14.613,2.909-2.374,5.917-4.628,9.028-6.745,3.6-2.449,7.328-4.722,11.174-6.804,3.829-2.072,7.779-3.944,11.828-5.627,8.863-3.684,18.226-6.391,27.952-8.017-.845-3.534-1.893-6.987-3.151-10.34-12.652,2.247-24.733,6.164-35.968,11.585-3.583,1.729-7.065,3.63-10.47,5.648-2.52,1.493-4.982,3.07-7.395,4.716-1.008.687-2.009,1.383-2.998,2.094-2.973,2.139-5.862,4.384-8.654,6.745-.903.763-1.776,1.559-2.658,2.344-3.714,3.305-7.24,6.812-10.583,10.49.154.177.311.355.461.533,2.137,2.529,4.241,5.216,6.272,7.991Z" fill="#e66000"/>
          <path d="M328.198,85.655c-.052-2.297-.167-4.579-.392-6.829-4.732.79-9.367,1.865-13.891,3.207-5.171,1.534-10.189,3.421-15.036,5.625-4.428,2.014-8.719,4.275-12.833,6.804-3.39,2.084-6.659,4.343-9.81,6.751-6.901,5.274-13.188,11.306-18.762,17.956.323.527.664,1.059.974,1.582,1.742,2.938,3.286,5.745,4.694,8.519,6.669-8.61,14.603-16.189,23.564-22.409,3.57-2.478,7.298-4.739,11.167-6.772,5.117-2.689,10.478-4.97,16.042-6.806,4.629-1.528,9.398-2.74,14.282-3.623.015-.668.051-1.331.051-2.003s-.036-1.334-.051-2.002Z" fill="#e66000"/>
        </g>
        <path d="M189.112,66.033c-9.689-4.169-19.938-7.27-30.603-9.165-1.259,3.353-2.307,6.806-3.152,10.34,7.431,1.243,14.643,3.132,21.587,5.591,1.363-.64,2.712-1.303,4.038-2,2.775-1.458,5.499-3.056,8.129-4.766Z" fill="#4794b5"/>
        <path d="M218.967,139.136c-4.169,9.689-7.271,19.938-9.165,30.602,3.354,1.259,6.808,2.308,10.342,3.153,1.243-7.43,3.131-14.641,5.59-21.586-.639-1.362-1.302-2.711-2-4.039-1.458-2.775-3.057-5.499-4.768-8.131Z" fill="#e66000"/>
        <path d="M262.216,36.178c4.169-9.689,7.271-19.938,9.166-30.603-3.354-1.259-6.808-2.307-10.343-3.152-1.243,7.43-3.131,14.641-5.59,21.586.64,1.362,1.303,2.711,2,4.038,1.458,2.776,3.057,5.501,4.768,8.132Z" fill="#f5a623"/>
        <path d="M292.071,109.281c9.689,4.169,19.938,7.27,30.603,9.165,1.258-3.353,2.307-6.806,3.152-10.34-7.431-1.243-14.643-3.132-21.588-5.591-1.361.639-2.71,1.302-4.038,2-2.778,1.46-5.502,3.058-8.128,4.766Z" fill="#d43365"/>
      </g>
      <g>
        <path d="M0,234.885c0-14.487,10.759-25.668,25.668-25.668,9.001,0,17.018,4.571,21.308,11.674l-10.9,6.258c-1.899-3.516-5.837-5.625-10.408-5.625-7.947,0-13.151,5.484-13.151,13.361s5.204,13.361,13.151,13.361c4.571,0,8.509-2.11,10.408-5.697l10.9,6.329c-4.289,7.103-12.236,11.674-21.308,11.674-14.908,0-25.668-11.181-25.668-25.667Z" fill="#4c1241"/>
        <path d="M73.604,243.605h-6.732v15.893h-12.588v-49.226h21.921c9.986,0,17.722,7.102,17.722,17.019,0,6.048-3.305,11.18-8.368,13.993l10.126,18.214h-13.502l-8.579-15.893ZM66.872,232.916h9.193c3.094.071,5.274-2.18,5.274-5.484,0-3.236-2.18-5.556-5.274-5.556h-9.193v11.041Z" fill="#4c1241"/>
        <path d="M264.426,243.605h-6.732v15.893h-12.588v-49.226h21.921c9.986,0,17.722,7.102,17.722,17.019,0,6.048-3.305,11.18-8.368,13.993l10.126,18.214h-13.502l-8.579-15.893ZM257.694,232.916h9.193c3.094.071,5.274-2.18,5.274-5.484,0-3.236-2.18-5.556-5.274-5.556h-9.193v11.041Z" fill="#4c1241"/>
        <path d="M100.323,234.885c0-14.487,11.462-25.668,25.808-25.668s25.808,11.181,25.808,25.668-11.462,25.667-25.808,25.667-25.808-11.181-25.808-25.667ZM139.423,234.885c0-7.877-5.767-13.361-13.291-13.361s-13.291,5.484-13.291,13.361,5.767,13.361,13.291,13.361,13.291-5.486,13.291-13.361Z" fill="#4c1241"/>
        <path d="M156.084,248.317l10.76-6.259c1.757,4.22,4.782,6.54,9.704,6.54,4.43,0,5.767-1.617,5.767-3.304,0-2.813-3.235-3.657-9.494-5.416-7.735-2.25-14.627-6.188-14.627-15.4s7.525-15.26,17.089-15.26c8.158,0,14.839,3.868,18.284,11.251l-10.548,6.189c-1.547-3.657-4.078-5.486-7.665-5.486-3.094,0-4.571,1.476-4.571,3.235,0,2.18,1.758,3.375,8.439,5.345,7.595,2.25,15.682,5.063,15.682,15.4,0,9.775-7.595,15.401-18.706,15.401-10.689,0-17.51-4.993-20.112-12.236Z" fill="#4c1241"/>
        <path d="M198.907,248.317l10.76-6.259c1.757,4.22,4.782,6.54,9.704,6.54,4.43,0,5.767-1.617,5.767-3.304,0-2.813-3.235-3.657-9.494-5.416-7.735-2.25-14.627-6.188-14.627-15.4s7.525-15.26,17.089-15.26c8.158,0,14.839,3.868,18.284,11.251l-10.548,6.189c-1.547-3.657-4.078-5.486-7.665-5.486-3.094,0-4.571,1.476-4.571,3.235,0,2.18,1.758,3.375,8.439,5.345,7.595,2.25,15.682,5.063,15.682,15.4,0,9.775-7.595,15.401-18.706,15.401-10.689,0-17.51-4.993-20.112-12.236Z" fill="#4c1241"/>
        <path d="M291.144,234.885c0-14.487,11.462-25.668,25.809-25.668s25.809,11.181,25.809,25.668-11.462,25.667-25.809,25.667-25.809-11.181-25.809-25.667ZM330.243,234.885c0-7.877-5.766-13.361-13.291-13.361s-13.291,5.484-13.291,13.361,5.766,13.361,13.291,13.361,13.291-5.486,13.291-13.361Z" fill="#4c1241"/>
        <path d="M377.565,252.396h-16.385l-2.11,7.102h-13.643l16.245-49.226h15.33l16.244,49.226h-13.572l-2.11-7.102ZM374.33,241.566l-4.993-16.738-4.922,16.738h9.915Z" fill="#4c1241"/>
        <path d="M443.594,234.885c0,13.924-10.338,24.613-23.91,24.613h-20.042v-49.226h20.042c13.572,0,23.91,10.689,23.91,24.614ZM431.288,234.885c0-7.525-4.853-12.447-11.603-12.447h-7.102v24.894h7.102c6.75,0,11.603-4.922,11.603-12.446Z" fill="#4c1241"/>
        <path d="M447.739,248.317l10.76-6.259c1.757,4.22,4.782,6.54,9.704,6.54,4.43,0,5.767-1.617,5.767-3.304,0-2.813-3.235-3.657-9.494-5.416-7.735-2.25-14.627-6.188-14.627-15.4s7.525-15.26,17.089-15.26c8.158,0,14.839,3.868,18.284,11.251l-10.548,6.189c-1.547-3.657-4.078-5.486-7.665-5.486-3.094,0-4.571,1.476-4.571,3.235,0,2.18,1.758,3.375,8.439,5.345,7.595,2.25,15.682,5.063,15.682,15.4,0,9.775-7.595,15.401-18.706,15.401-10.689,0-17.51-4.993-20.112-12.236Z" fill="#4c1241"/>
      </g>
      <g>
        <path d="M94.948,300.517c0-8.647,6.412-15.354,15.355-15.354,5.399,0,10.166,2.742,12.697,6.96l-5.02,2.911c-1.434-2.616-4.302-4.218-7.677-4.218-5.779,0-9.576,4.007-9.576,9.702,0,5.653,3.797,9.66,9.576,9.66,3.375,0,6.285-1.603,7.677-4.176l5.02,2.91c-2.488,4.218-7.255,6.961-12.697,6.961-8.943,0-15.355-6.749-15.355-15.355Z" fill="#4c1241"/>
        <path d="M137.603,300.517c0-8.647,6.791-15.354,15.313-15.354s15.354,6.707,15.354,15.354-6.833,15.355-15.354,15.355-15.313-6.749-15.313-15.355ZM162.449,300.517c0-5.695-4.176-9.702-9.533-9.702s-9.534,4.007-9.534,9.702c0,5.653,4.176,9.66,9.534,9.66s9.533-4.007,9.533-9.66Z" fill="#4c1241"/>
        <polygon points="213.919 315.282 208.141 315.282 208.141 296.131 199.83 309.84 199.155 309.84 190.845 296.172 190.845 315.282 185.024 315.282 185.024 285.753 191.014 285.753 199.492 299.716 207.929 285.753 213.919 285.753 213.919 315.282" fill="#4c1241"/>
        <polygon points="260.961 315.282 255.182 315.282 255.182 296.131 246.872 309.84 246.196 309.84 237.887 296.172 237.887 315.282 232.066 315.282 232.066 285.753 238.056 285.753 246.534 299.716 254.971 285.753 260.961 285.753 260.961 315.282" fill="#4c1241"/>
        <path d="M277.757,300.517c0-8.647,6.791-15.354,15.313-15.354s15.354,6.707,15.354,15.354-6.833,15.355-15.354,15.355-15.313-6.749-15.313-15.355ZM302.602,300.517c0-5.695-4.176-9.702-9.533-9.702s-9.534,4.007-9.534,9.702c0,5.653,4.176,9.66,9.534,9.66s9.533-4.007,9.533-9.66Z" fill="#4c1241"/>
        <polygon points="348.084 285.753 348.084 315.282 343.655 315.282 331 297.227 331 315.282 325.178 315.282 325.178 285.753 329.607 285.753 342.263 303.766 342.263 285.753 348.084 285.753" fill="#4c1241"/>
        <path d="M364.246,308.575l4.978-2.911c1.055,2.742,3.121,4.514,6.791,4.514,3.502,0,4.725-1.476,4.725-3.121,0-2.194-1.983-3.037-6.37-4.302-4.514-1.308-8.9-3.206-8.9-8.817,0-5.568,4.64-8.774,9.702-8.774,4.851,0,8.563,2.488,10.546,6.623l-4.894,2.826c-1.055-2.236-2.657-3.797-5.652-3.797-2.447,0-3.881,1.266-3.881,2.952,0,1.814,1.139,2.785,5.61,4.135,4.683,1.476,9.66,3.037,9.66,9.069,0,5.527-4.429,8.901-10.714,8.901-6.032,0-9.998-2.911-11.601-7.297Z" fill="#4c1241"/>
      </g>
    </g>
  </g>
</svg>